<?xml version="1.0" encoding="utf-8"?>
<!-- Generator: Adobe Illustrator 16.0.0, SVG Export Plug-In . SVG Version: 6.00 Build 0)  -->
<!DOCTYPE svg PUBLIC "-//W3C//DTD SVG 1.1//EN" "http://www.w3.org/Graphics/SVG/1.1/DTD/svg11.dtd">
<svg version="1.1" id="Camada_1" xmlns="http://www.w3.org/2000/svg" xmlns:xlink="http://www.w3.org/1999/xlink" x="0px" y="0px"
	 width="225.208px" height="311.431px" viewBox="0 0 225.208 311.431" enable-background="new 0 0 225.208 311.431"
	 xml:space="preserve">
<g>
	<g>
		<path d="M12.939,101.255c-0.766,0-1.544-0.093-2.305-0.26c-5.767-1.273-9.414-6.974-8.148-12.73
			c0.483-2.223,1.06-4.473,1.674-6.678c1.637-5.672,7.551-8.964,13.221-7.345c5.674,1.626,8.964,7.541,7.349,13.223
			c-0.505,1.776-0.967,3.599-1.359,5.384C22.256,97.842,17.848,101.255,12.939,101.255z"/>
		<path d="M27.295,67.203c-2.011,0-4.055-0.567-5.859-1.757c-4.947-3.255-6.306-9.885-3.05-14.805
			C34.455,26.212,58.911,9.177,87.254,2.631c5.767-1.311,11.492,2.269,12.813,8.025c1.342,5.746-2.25,11.484-7.997,12.814
			c-22.967,5.291-42.792,19.109-55.828,38.917C34.177,65.51,30.774,67.203,27.295,67.203z"/>
		<path d="M212.826,102.836c-4.964,0-9.427-3.497-10.448-8.564c-3.311-16.254-11.051-31.346-22.357-43.621
			c-3.996-4.343-3.719-11.103,0.613-15.102c4.333-3.999,11.105-3.729,15.102,0.614c13.97,15.147,23.489,33.764,27.582,53.841
			c1.174,5.784-2.566,11.428-8.35,12.61C214.261,102.752,213.533,102.836,212.826,102.836z"/>
		<path d="M170.518,222.82c-2.175,0-4.37-0.669-6.268-2.036c-4.778-3.469-5.839-10.154-2.381-14.925
			c2.288-3.143,4.631-6.295,7.012-9.485c9.709-13.018,19.75-26.492,26.577-42.114c2.381-5.413,8.687-7.886,14.079-5.524
			c5.409,2.362,7.887,8.667,5.506,14.068c-7.794,17.903-18.601,32.36-29.033,46.355c-2.305,3.106-4.61,6.176-6.827,9.235
			C177.084,221.286,173.828,222.82,170.518,222.82z"/>
		<path d="M147.941,277.842h-70.45c-5.897,0-10.676-4.781-10.676-10.676c0-7.56-1.599-14.963-4.854-22.671
			c-2.305-5.42,0.244-11.698,5.675-14.004c5.447-2.297,11.715,0.231,14.003,5.681c2.903,6.817,4.816,13.522,5.784,20.293h60.519
			c5.914,0,10.672,4.786,10.672,10.701C158.613,273.061,153.855,277.842,147.941,277.842z"/>
		<path d="M56.123,224.689c-3.273,0-6.512-1.497-8.594-4.324c-1.484-1.998-3.251-4.343-4.871-6.499L41,211.68
			c-3.533-4.715-2.583-11.409,2.12-14.953c4.724-3.562,11.421-2.604,14.975,2.111l1.615,2.158c1.674,2.202,3.479,4.612,4.985,6.638
			c3.517,4.742,2.528,11.439-2.213,14.954C60.569,224.001,58.335,224.689,56.123,224.689z"/>
		<path d="M148.127,311.431h-38.052c-5.897,0-10.693-4.781-10.693-10.685c0-5.906,4.795-10.695,10.693-10.695h38.052
			c5.893,0,10.692,4.789,10.692,10.695C158.819,306.65,154.02,311.431,148.127,311.431z"/>
	</g>
	<g>
		<path fill="#BE1E2D" d="M161.962,33.772c-1.729,0-3.496-0.427-5.132-1.329c-11.678-6.435-24.343-10.173-37.698-11.094
			c-5.877-0.418-10.323-5.515-9.911-11.4c0.408-5.887,5.54-10.341,11.399-9.922c16.46,1.143,32.1,5.755,46.532,13.697
			c5.17,2.854,7.029,9.345,4.186,14.516C169.382,31.773,165.739,33.772,161.962,33.772z"/>
		<path fill="#BE1E2D" d="M213.369,142.097c-0.576,0-1.152-0.047-1.75-0.149c-5.822-0.958-9.764-6.454-8.816-12.274
			c0.483-2.883,0.837-5.84,1.06-8.816c0.45-5.886,5.561-10.303,11.476-9.838c5.897,0.456,10.284,5.579,9.839,11.476
			c-0.261,3.58-0.707,7.16-1.283,10.647C223.04,138.377,218.501,142.097,213.369,142.097z"/>
		<path fill="#BE1E2D" d="M153.986,250.167c-1.413,0-2.886-0.288-4.262-0.902c-5.409-2.361-7.883-8.665-5.522-14.06
			c0.467-1.05,0.93-2.091,1.413-3.123c2.549-5.328,8.926-7.598,14.265-5.059c5.32,2.538,7.588,8.918,5.039,14.245
			c-0.392,0.818-0.762,1.646-1.132,2.474C162.037,247.77,158.112,250.167,153.986,250.167z"/>
		<path fill="#BE1E2D" d="M33.265,192.877c-3.479,0-6.882-1.692-8.926-4.808c-10.563-16.022-22.875-38.386-24.326-69.379
			c-0.278-5.896,4.295-10.889,10.192-11.168c5.876-0.288,10.899,4.278,11.177,10.183c1.19,25.786,11.736,44.858,20.792,58.601
			c3.256,4.931,1.897,11.549-3.033,14.805C37.336,192.31,35.292,192.877,33.265,192.877z"/>
		<path fill="#BE1E2D" d="M83.515,311.431h-3.437c-5.914,0-10.697-4.781-10.697-10.685c0-5.906,4.783-10.695,10.697-10.695h3.437
			c5.897,0,10.697,4.789,10.697,10.695C94.212,306.65,89.413,311.431,83.515,311.431z"/>
	</g>
</g>
</svg>
