<?xml version="1.0" encoding="utf-8"?>
<!-- Generator: Adobe Illustrator 16.0.0, SVG Export Plug-In . SVG Version: 6.00 Build 0)  -->
<!DOCTYPE svg PUBLIC "-//W3C//DTD SVG 1.1//EN" "http://www.w3.org/Graphics/SVG/1.1/DTD/svg11.dtd">
<svg version="1.1" id="Camada_1" xmlns="http://www.w3.org/2000/svg" xmlns:xlink="http://www.w3.org/1999/xlink" x="0px" y="0px"
	 width="507.852px" height="288.873px" viewBox="0 0 507.852 288.873" enable-background="new 0 0 507.852 288.873"
	 xml:space="preserve">
<g>
	<g>
		<path d="M0,270.154c0-0.598,0.294-1.785,0.593-2.977L57.948,80.259c2.658-8.908,13.671-13.065,24.663-13.065
			c11.285,0,22.277,4.157,24.957,13.065l57.354,186.918c0.299,1.191,0.598,2.082,0.598,2.977c0,9.205-13.97,16.051-24.364,16.051
			c-6.545,0-11.605-2.086-13.095-7.738l-11.286-39.512H48.724l-11.286,39.512c-1.489,5.652-6.528,7.738-13.078,7.738
			C13.965,286.205,0,279.666,0,270.154z M108.459,208.641L82.611,117.41l-25.854,91.231H108.459z"/>
		<path d="M268.625,102.846c-19.9,0-31.187,11.001-31.187,34.184v82.9c0,23.182,11.286,34.174,31.784,34.174
			c27.061,0,29.441-19.305,30.312-31.793c0.598-9.207,8.931-12.191,19.026-12.191c13.372,0,19.602,3.869,19.602,19.027
			c0,35.947-29.403,58.832-71.005,58.832c-37.459,0-68.347-18.422-68.347-68.049v-82.9c0-49.638,31.187-68.05,68.646-68.05
			c41.303,0,70.706,21.983,70.706,56.454c0,15.455-6.229,19.017-19.303,19.017c-10.992,0-19.026-3.273-19.325-12.182
			C298.941,123.053,296.859,102.846,268.625,102.846z"/>
		<path d="M469.224,228.252c0-44.57-95.391-30.898-95.391-101.339c0-44.264,38.035-59.421,72.217-59.421
			c17.521,0,56.446,4.147,56.446,23.769c0,6.835-4.744,20.504-15.438,20.504c-9.207,0-16.052-11.298-41.009-11.298
			c-21.406,0-33.589,8.629-33.589,22.885c0,36.85,95.391,24.075,95.391,101.042c0,42.486-29.719,64.48-70.728,64.48
			c-38.927,0-68.646-19.613-68.646-36.854c0-8.311,7.735-20.791,16.943-20.791c12.182,0,20.217,22.875,50.528,22.875
			C453.769,254.104,469.224,246.078,469.224,228.252z"/>
	</g>
	<g>
		<path fill="#BE1E2D" d="M68.733,25.786c0-5.774-15.101-4.77-15.101-15.919C53.633,2.715,59.875,0,65.835,0
			c2.521,0,9.486,0.474,9.486,4.194c0,1.283-0.867,3.906-2.958,3.906c-1.72,0-2.624-1.813-6.528-1.813
			c-3.386,0-4.77,1.385-4.77,2.863c0,4.761,15.109,3.86,15.109,15.875c0,6.862-5.001,10.572-11.921,10.572
			c-6.238,0-11.484-3.05-11.484-6.193c0-1.618,1.431-4.008,3.244-4.008c2.241,0,3.663,3.534,8.102,3.534
			C66.311,28.929,68.733,28.074,68.733,25.786z"/>
		<path fill="#BE1E2D" d="M122.669,2.52c0-1.571,1.859-2.231,3.719-2.231c1.851,0,3.71,0.661,3.71,2.231v30.315
			c0,1.525-1.859,2.288-3.71,2.288c-1.859,0-3.719-0.763-3.719-2.288V2.52z"/>
		<path fill="#BE1E2D" d="M192.383,25.786c0-5.774-15.102-4.77-15.102-15.919c0-7.151,6.242-9.866,12.203-9.866
			c2.52,0,9.473,0.474,9.473,4.194c0,1.283-0.854,3.906-2.948,3.906c-1.721,0-2.62-1.813-6.524-1.813
			c-3.386,0-4.774,1.385-4.774,2.863c0,4.761,15.114,3.86,15.114,15.875c0,6.862-5.006,10.572-11.913,10.572
			c-6.251,0-11.492-3.05-11.492-6.193c0-1.618,1.431-4.008,3.243-4.008c2.242,0,3.673,3.534,8.102,3.534
			C189.956,28.929,192.383,28.074,192.383,25.786z"/>
		<path fill="#BE1E2D" d="M266.951,0.288c1.573,0,2.242,1.711,2.242,3.283c0,1.813-0.808,3.384-2.242,3.384h-6.575v25.879
			c0,1.525-1.858,2.288-3.718,2.288s-3.719-0.763-3.719-2.288V6.956h-6.575c-1.43,0-2.241-1.571-2.241-3.384
			c0-1.572,0.668-3.283,2.241-3.283H266.951z"/>
		<path fill="#BE1E2D" d="M322.4,14.823h7.151c1.435,0,2.242,1.376,2.242,2.901c0,1.292-0.669,2.817-2.242,2.817H322.4v8.099h12.779
			c1.422,0,2.238,1.525,2.238,3.292c0,1.526-0.669,3.19-2.238,3.19h-16.973c-1.615,0-3.234-0.763-3.234-2.288V2.577
			c0-1.526,1.619-2.289,3.234-2.289h16.973c1.569,0,2.238,1.665,2.238,3.189c0,1.767-0.816,3.293-2.238,3.293H322.4V14.823z"/>
		<path fill="#BE1E2D" d="M400.263,22.782c-0.623,1.042-1.573,1.376-2.481,1.376c-0.858,0-1.759-0.288-2.335-1.376l-4.53-8.294
			v18.346c0,1.525-1.859,2.288-3.711,2.288c-1.858,0-3.718-0.763-3.718-2.288V3.998c0-2.715,1.859-3.71,3.718-3.71
			c2.659,0,3.816,0.28,5.768,3.71l4.909,8.583l4.9-8.583c1.96-3.43,3.096-3.71,5.775-3.71c1.897,0,3.71,0.995,3.71,3.71v28.836
			c0,1.525-1.859,2.288-3.71,2.288c-1.859,0-3.723-0.763-3.723-2.288V14.962L400.263,22.782z"/>
		<path fill="#BE1E2D" d="M457.841,32.072c0-0.14,0.055-0.334,0.101-0.521l8.863-29.078C467.326,0.81,469.476,0,471.668,0
			c2.187,0,4.332,0.81,4.862,2.474l8.909,29.078c0.046,0.186,0.093,0.38,0.093,0.521c0,1.767-2.714,3.05-4.758,3.05
			c-1.19,0-2.149-0.381-2.439-1.385l-1.615-5.951h-10.054l-1.628,5.951c-0.277,1.004-1.237,1.385-2.427,1.385
			C460.566,35.122,457.841,33.839,457.841,32.072z M475.146,22.067L471.668,9.29l-3.475,12.777H475.146z"/>
	</g>
</g>
</svg>
